# Blender v2.81 (sub 16) OBJ File: 'pont1.blend'
# www.blender.org
mtllib arc.mtl
o Circle
v 41.943142 0.000000 -3.000137
v 40.967690 0.000000 -2.942493
v 40.029724 0.000000 -2.771776
v 39.165291 0.000000 -2.494546
v 38.407608 0.000000 -2.121458
v 37.785793 0.000000 -1.666848
v 37.323746 0.000000 -1.148187
v 37.039215 0.000000 -0.585408
v 36.943142 0.000000 -0.000137
v 37.039215 0.000000 0.585133
v 37.323746 0.000000 1.147913
v 37.785793 0.000000 1.666573
v 38.407608 0.000000 2.121183
v 39.165291 0.000000 2.494272
v 40.029724 0.000000 2.771502
v 40.967690 0.000000 2.942219
v 41.943142 0.000000 2.999863
v 42.918594 0.000000 2.942218
v 43.856560 0.000000 2.771501
v 44.720993 0.000000 2.494271
v 45.478676 0.000000 2.121182
v 46.100491 0.000000 1.666572
v 46.562542 0.000000 1.147911
v 46.847069 0.000000 0.585131
v 46.943142 0.000000 -0.000140
v 46.847069 0.000000 -0.585411
v 46.562538 0.000000 -1.148190
v 46.100487 0.000000 -1.666851
v 45.478672 0.000000 -2.121460
v 44.720985 0.000000 -2.494548
v 43.856552 0.000000 -2.771777
v 42.918587 0.000000 -2.942494
v 35.231438 0.000000 -3.000362
v 34.255985 0.000000 -2.942718
v 33.318020 0.000000 -2.772001
v 32.453587 0.000000 -2.494771
v 31.695904 0.000000 -2.121683
v 31.074089 0.000000 -1.667073
v 30.612038 0.000000 -1.148413
v 30.327511 0.000000 -0.585633
v 30.231438 0.000000 -0.000362
v 30.327511 0.000000 0.584908
v 30.612038 0.000000 1.147688
v 31.074089 0.000000 1.666348
v 31.695904 0.000000 2.120958
v 32.453587 0.000000 2.494047
v 33.318020 0.000000 2.771276
v 34.255989 0.000000 2.941994
v 35.231438 0.000000 2.999638
v 36.206890 0.000000 2.941993
v 37.144859 0.000000 2.771276
v 38.009293 0.000000 2.494046
v 38.766975 0.000000 2.120957
v 39.388786 0.000000 1.666347
v 39.850838 0.000000 1.147686
v 40.135365 0.000000 0.584906
v 40.231438 0.000000 -0.000365
v 40.135365 0.000000 -0.585636
v 39.850830 0.000000 -1.148416
v 39.388783 0.000000 -1.667076
v 38.766968 0.000000 -2.121685
v 38.009285 0.000000 -2.494773
v 37.144848 0.000000 -2.772003
v 36.206879 0.000000 -2.942719
o Cube.001
v -2.683143 0.175613 60.845375
v -2.683143 63.555302 0.052032
v -2.683143 0.085239 55.145206
v -2.683143 57.855431 0.096302
v 3.012742 0.175613 60.845375
v 3.012742 63.555302 0.052032
v 3.012742 0.085239 55.145206
v 3.012742 57.855431 0.096302
v -2.683143 3.285656 60.808956
v -2.683143 6.386061 60.620647
v -2.683143 9.469429 60.281315
v -2.683143 12.528418 59.792152
v -2.683143 15.555767 59.154751
v -2.683143 18.544292 58.371017
v -2.683143 21.486952 57.443233
v -2.683143 24.376810 56.374004
v -2.683143 27.207081 55.166264
v -2.683143 29.971146 53.823280
v -2.683143 32.662563 52.348640
v -2.683143 35.275066 50.746223
v -2.683143 37.802616 49.020226
v -2.683143 40.239384 47.175095
v -2.683143 42.579773 45.215595
v -2.683143 44.818443 43.146729
v -2.683143 46.950291 40.973740
v -2.683143 48.970512 38.702118
v -2.683143 50.874557 36.337585
v -2.683143 52.658188 33.886047
v -2.683143 54.317436 31.353632
v -2.683143 55.848701 28.746609
v -2.683143 57.248627 26.071447
v -2.683143 58.514240 23.334736
v -2.683143 59.642860 20.543201
v -2.683143 60.632172 17.703686
v -2.683143 61.480179 14.823128
v -2.683143 62.185234 11.908527
v -2.683143 62.746044 8.966991
v -2.683143 63.161667 6.005630
v -2.683143 63.431496 3.031582
v -2.683143 57.736244 2.797569
v -2.683143 57.484600 5.493870
v -2.683143 57.100697 8.178707
v -2.683143 56.585079 10.845604
v -2.683143 55.938557 13.488087
v -2.683143 55.162308 16.099716
v -2.683143 54.257790 18.674126
v -2.683143 53.226795 21.205006
v -2.683143 52.071434 23.686134
v -2.683143 50.794090 26.111406
v -2.683143 49.397476 28.474810
v -2.683143 47.884590 30.770479
v -2.683143 46.258724 32.992683
v -2.683143 44.523441 35.135872
v -2.683143 42.682594 37.194633
v -2.683143 40.740292 39.163780
v -2.683143 38.700893 41.038311
v -2.683143 36.569023 42.813419
v -2.683143 34.349537 44.484547
v -2.683143 32.047493 46.047379
v -2.683143 29.668198 47.497814
v -2.683143 27.217136 48.832047
v -2.683143 24.699989 50.046520
v -2.683143 22.122614 51.137951
v -2.683143 19.491035 52.103367
v -2.683143 16.811419 52.940056
v -2.683143 14.090061 53.645641
v -2.683143 11.333385 54.218040
v -2.683143 8.547918 54.655483
v -2.683143 5.740271 54.956516
v -2.683143 2.917130 55.120026
v 3.012742 57.736244 2.797569
v 3.012742 57.484600 5.493870
v 3.012742 57.100697 8.178707
v 3.012742 56.585079 10.845604
v 3.012742 55.938557 13.488087
v 3.012742 55.162308 16.099716
v 3.012742 54.257790 18.674126
v 3.012742 53.226795 21.205006
v 3.012742 52.071434 23.686134
v 3.012742 50.794090 26.111406
v 3.012742 49.397476 28.474810
v 3.012742 47.884590 30.770479
v 3.012742 46.258724 32.992683
v 3.012742 44.523441 35.135872
v 3.012742 42.682594 37.194633
v 3.012742 40.740292 39.163780
v 3.012742 38.700893 41.038311
v 3.012742 36.569023 42.813419
v 3.012742 34.349537 44.484547
v 3.012742 32.047493 46.047379
v 3.012742 29.668198 47.497814
v 3.012742 27.217136 48.832047
v 3.012742 24.699989 50.046520
v 3.012742 22.122614 51.137951
v 3.012742 19.491035 52.103367
v 3.012742 16.811419 52.940056
v 3.012742 14.090061 53.645641
v 3.012742 11.333385 54.218040
v 3.012742 8.547918 54.655483
v 3.012742 5.740271 54.956516
v 3.012742 2.917130 55.120026
v 3.012742 63.431496 3.031582
v 3.012742 63.161667 6.005630
v 3.012742 62.746044 8.966991
v 3.012742 62.185234 11.908527
v 3.012742 61.480179 14.823128
v 3.012742 60.632172 17.703686
v 3.012742 59.642860 20.543201
v 3.012742 58.514240 23.334736
v 3.012742 57.248627 26.071447
v 3.012742 55.848701 28.746609
v 3.012742 54.317436 31.353632
v 3.012742 52.658188 33.886047
v 3.012742 50.874557 36.337585
v 3.012742 48.970512 38.702118
v 3.012742 46.950291 40.973740
v 3.012742 44.818443 43.146729
v 3.012742 42.579773 45.215595
v 3.012742 40.239384 47.175095
v 3.012742 37.802616 49.020226
v 3.012742 35.275066 50.746223
v 3.012742 32.662563 52.348640
v 3.012742 29.971146 53.823280
v 3.012742 27.207081 55.166264
v 3.012742 24.376810 56.374004
v 3.012742 21.486952 57.443233
v 3.012742 18.544292 58.371017
v 3.012742 15.555767 59.154751
v 3.012742 12.528418 59.792152
v 3.012742 9.469429 60.281315
v 3.012742 6.386061 60.620647
v 3.012742 3.285656 60.808956
vt 0.625000 0.000000
vt 0.617188 0.250000
vt 0.617188 0.000000
vt 0.625000 0.250000
vt 0.617188 0.500000
vt 0.625000 0.750000
vt 0.617188 0.750000
vt 0.617188 1.000000
vt 0.375000 0.500000
vt 0.125000 0.750000
vt 0.125000 0.500000
vt 0.875000 0.500000
vt 0.625000 0.500000
vt 0.382812 0.750000
vt 0.375000 1.000000
vt 0.375000 0.750000
vt 0.390625 0.750000
vt 0.382812 1.000000
vt 0.398438 0.750000
vt 0.390625 1.000000
vt 0.406250 0.750000
vt 0.398438 1.000000
vt 0.414062 0.750000
vt 0.406250 1.000000
vt 0.421875 0.750000
vt 0.414063 1.000000
vt 0.429688 0.750000
vt 0.421875 1.000000
vt 0.437500 0.750000
vt 0.429688 1.000000
vt 0.445312 0.750000
vt 0.437500 1.000000
vt 0.453125 0.750000
vt 0.445312 1.000000
vt 0.460938 0.750000
vt 0.453125 1.000000
vt 0.468750 0.750000
vt 0.460938 1.000000
vt 0.476563 0.750000
vt 0.468750 1.000000
vt 0.484375 0.750000
vt 0.476562 1.000000
vt 0.492188 0.750000
vt 0.484375 1.000000
vt 0.500000 0.750000
vt 0.492188 1.000000
vt 0.507813 0.750000
vt 0.500000 1.000000
vt 0.515625 0.750000
vt 0.507812 1.000000
vt 0.523438 0.750000
vt 0.515625 1.000000
vt 0.531250 0.750000
vt 0.523438 1.000000
vt 0.539063 0.750000
vt 0.531250 1.000000
vt 0.546875 0.750000
vt 0.539062 1.000000
vt 0.554688 0.750000
vt 0.546875 1.000000
vt 0.562500 0.750000
vt 0.554688 1.000000
vt 0.570312 0.750000
vt 0.562500 1.000000
vt 0.578125 0.750000
vt 0.570312 1.000000
vt 0.585938 0.750000
vt 0.578125 1.000000
vt 0.593750 0.750000
vt 0.585938 1.000000
vt 0.601562 0.750000
vt 0.593750 1.000000
vt 0.609375 0.750000
vt 0.601562 1.000000
vt 0.609375 1.000000
vt 0.382812 0.500000
vt 0.390625 0.500000
vt 0.398438 0.500000
vt 0.406250 0.500000
vt 0.414062 0.500000
vt 0.421875 0.500000
vt 0.429688 0.500000
vt 0.437500 0.500000
vt 0.445312 0.500000
vt 0.453125 0.500000
vt 0.460938 0.500000
vt 0.468750 0.500000
vt 0.476563 0.500000
vt 0.484375 0.500000
vt 0.492188 0.500000
vt 0.500000 0.500000
vt 0.507813 0.500000
vt 0.515625 0.500000
vt 0.523438 0.500000
vt 0.531250 0.500000
vt 0.539063 0.500000
vt 0.546875 0.500000
vt 0.554688 0.500000
vt 0.562500 0.500000
vt 0.570312 0.500000
vt 0.578125 0.500000
vt 0.585938 0.500000
vt 0.593750 0.500000
vt 0.601562 0.500000
vt 0.609375 0.500000
vt 0.382812 0.250000
vt 0.375000 0.250000
vt 0.390625 0.250000
vt 0.398438 0.250000
vt 0.406250 0.250000
vt 0.414062 0.250000
vt 0.421875 0.250000
vt 0.429688 0.250000
vt 0.437500 0.250000
vt 0.445312 0.250000
vt 0.453125 0.250000
vt 0.460938 0.250000
vt 0.468750 0.250000
vt 0.476563 0.250000
vt 0.484375 0.250000
vt 0.492188 0.250000
vt 0.500000 0.250000
vt 0.507813 0.250000
vt 0.515625 0.250000
vt 0.523438 0.250000
vt 0.531250 0.250000
vt 0.539063 0.250000
vt 0.546875 0.250000
vt 0.554688 0.250000
vt 0.562500 0.250000
vt 0.570312 0.250000
vt 0.578125 0.250000
vt 0.585938 0.250000
vt 0.593750 0.250000
vt 0.601562 0.250000
vt 0.609375 0.250000
vt 0.375000 0.000000
vt 0.390625 0.000000
vt 0.382812 0.000000
vt 0.398438 0.000000
vt 0.406250 0.000000
vt 0.414063 0.000000
vt 0.421875 0.000000
vt 0.429688 0.000000
vt 0.437500 0.000000
vt 0.445312 0.000000
vt 0.453125 0.000000
vt 0.460938 0.000000
vt 0.468750 0.000000
vt 0.476562 0.000000
vt 0.484375 0.000000
vt 0.492188 0.000000
vt 0.500000 0.000000
vt 0.507812 0.000000
vt 0.515625 0.000000
vt 0.523438 0.000000
vt 0.531250 0.000000
vt 0.539062 0.000000
vt 0.546875 0.000000
vt 0.554688 0.000000
vt 0.562500 0.000000
vt 0.570312 0.000000
vt 0.578125 0.000000
vt 0.585938 0.000000
vt 0.593750 0.000000
vt 0.601562 0.000000
vt 0.609375 0.000000
vt 0.625000 1.000000
vt 0.875000 0.750000
vn -1.0000 0.0000 0.0000
vn 0.0000 -0.9990 -0.0441
vn 1.0000 0.0000 0.0000
vn 0.0000 0.9991 0.0415
vn 0.0000 -0.9999 0.0159
vn 0.0000 -0.0078 -1.0000
vn 0.0000 0.0117 0.9999
vn 0.0000 0.0606 0.9982
vn 0.0000 0.1094 0.9940
vn 0.0000 0.1579 0.9875
vn 0.0000 0.2060 0.9785
vn 0.0000 0.2537 0.9673
vn 0.0000 0.3007 0.9537
vn 0.0000 0.3470 0.9379
vn 0.0000 0.3925 0.9198
vn 0.0000 0.4370 0.8995
vn 0.0000 0.4805 0.8770
vn 0.0000 0.5228 0.8524
vn 0.0000 0.5639 0.8258
vn 0.0000 0.6037 0.7972
vn 0.0000 0.6420 0.7667
vn 0.0000 0.6787 0.7344
vn 0.0000 0.7138 0.7003
vn 0.0000 0.7472 0.6646
vn 0.0000 0.7789 0.6272
vn 0.0000 0.8086 0.5883
vn 0.0000 0.8364 0.5480
vn 0.0000 0.8623 0.5065
vn 0.0000 0.8860 0.4637
vn 0.0000 0.9076 0.4197
vn 0.0000 0.9271 0.3748
vn 0.0000 0.9443 0.3290
vn 0.0000 0.9593 0.2824
vn 0.0000 0.9720 0.2351
vn 0.0000 0.9823 0.1873
vn 0.0000 0.9903 0.1390
vn 0.0000 0.9959 0.0904
vn 0.0000 -0.0089 -1.0000
vn 0.0000 -0.0578 -0.9983
vn 0.0000 -0.1066 -0.9943
vn 0.0000 -0.1551 -0.9879
vn 0.0000 -0.2033 -0.9791
vn 0.0000 -0.2510 -0.9680
vn 0.0000 -0.2981 -0.9546
vn 0.0000 -0.3444 -0.9388
vn 0.0000 -0.3899 -0.9208
vn 0.0000 -0.4345 -0.9006
vn 0.0000 -0.4781 -0.8783
vn 0.0000 -0.5205 -0.8539
vn 0.0000 -0.5617 -0.8274
vn 0.0000 -0.6015 -0.7989
vn 0.0000 -0.6399 -0.7685
vn 0.0000 -0.6767 -0.7362
vn 0.0000 -0.7119 -0.7022
vn 0.0000 -0.7455 -0.6666
vn 0.0000 -0.7772 -0.6293
vn 0.0000 -0.8071 -0.5905
vn 0.0000 -0.8350 -0.5503
vn 0.0000 -0.8609 -0.5087
vn 0.0000 -0.8848 -0.4660
vn 0.0000 -0.9065 -0.4221
vn 0.0000 -0.9261 -0.3773
vn 0.0000 -0.9435 -0.3315
vn 0.0000 -0.9586 -0.2849
vn 0.0000 -0.9714 -0.2377
vn 0.0000 -0.9818 -0.1898
vn 0.0000 -0.9899 -0.1415
vn 0.0000 -0.9957 -0.0929
vn 0.0000 0.7472 0.6645
vn 0.0000 -0.9713 -0.2377
vn 0.0000 -0.9899 -0.1416
g Cube.001_Cube.001_Material.001
usemtl Material.001
s off
f 66/1/1 104/2/1 103/3/1
f 68/4/2 135/5/2 104/2/2
f 135/5/3 70/6/3 166/7/3
f 70/6/4 103/8/4 166/7/4
f 71/9/5 65/10/5 67/11/5
f 68/12/6 70/6/6 72/13/6
f 196/14/7 65/15/7 69/16/7
f 195/17/8 73/18/8 196/14/8
f 194/19/9 74/20/9 195/17/9
f 193/21/10 75/22/10 194/19/10
f 192/23/11 76/24/11 193/21/11
f 191/25/12 77/26/12 192/23/12
f 190/27/13 78/28/13 191/25/13
f 189/29/14 79/30/14 190/27/14
f 188/31/15 80/32/15 189/29/15
f 187/33/16 81/34/16 188/31/16
f 186/35/17 82/36/17 187/33/17
f 185/37/18 83/38/18 186/35/18
f 184/39/19 84/40/19 185/37/19
f 183/41/20 85/42/20 184/39/20
f 182/43/21 86/44/21 183/41/21
f 181/45/22 87/46/22 182/43/22
f 180/47/23 88/48/23 181/45/23
f 179/49/24 89/50/24 180/47/24
f 178/51/25 90/52/25 179/49/25
f 177/53/26 91/54/26 178/51/26
f 176/55/27 92/56/27 177/53/27
f 175/57/28 93/58/28 176/55/28
f 174/59/29 94/60/29 175/57/29
f 173/61/30 95/62/30 174/59/30
f 172/63/31 96/64/31 173/61/31
f 171/65/32 97/66/32 172/63/32
f 170/67/33 98/68/33 171/65/33
f 169/69/34 99/70/34 170/67/34
f 168/71/35 100/72/35 169/69/35
f 167/73/36 101/74/36 168/71/36
f 166/7/37 102/75/37 167/73/37
f 165/76/3 69/16/3 71/9/3
f 165/76/3 195/17/3 196/14/3
f 164/77/3 194/19/3 195/17/3
f 163/78/3 193/21/3 194/19/3
f 162/79/3 192/23/3 193/21/3
f 161/80/3 191/25/3 192/23/3
f 160/81/3 190/27/3 191/25/3
f 159/82/3 189/29/3 190/27/3
f 158/83/3 188/31/3 189/29/3
f 157/84/3 187/33/3 188/31/3
f 156/85/3 186/35/3 187/33/3
f 155/86/3 185/37/3 186/35/3
f 154/87/3 184/39/3 185/37/3
f 153/88/3 183/41/3 184/39/3
f 152/89/3 182/43/3 183/41/3
f 151/90/3 181/45/3 182/43/3
f 150/91/3 180/47/3 181/45/3
f 149/92/3 179/49/3 180/47/3
f 148/93/3 178/51/3 179/49/3
f 147/94/3 177/53/3 178/51/3
f 146/95/3 176/55/3 177/53/3
f 145/96/3 175/57/3 176/55/3
f 144/97/3 174/59/3 175/57/3
f 143/98/3 173/61/3 174/59/3
f 142/99/3 172/63/3 173/61/3
f 141/100/3 171/65/3 172/63/3
f 140/101/3 170/67/3 171/65/3
f 139/102/3 169/69/3 170/67/3
f 138/103/3 168/71/3 169/69/3
f 137/104/3 167/73/3 168/71/3
f 136/105/3 166/7/3 167/73/3
f 134/106/38 71/9/38 67/107/38
f 133/108/39 165/76/39 134/106/39
f 132/109/40 164/77/40 133/108/40
f 131/110/41 163/78/41 132/109/41
f 130/111/42 162/79/42 131/110/42
f 129/112/43 161/80/43 130/111/43
f 128/113/44 160/81/44 129/112/44
f 127/114/45 159/82/45 128/113/45
f 126/115/46 158/83/46 127/114/46
f 125/116/47 157/84/47 126/115/47
f 124/117/48 156/85/48 125/116/48
f 123/118/49 155/86/49 124/117/49
f 122/119/50 154/87/50 123/118/50
f 121/120/51 153/88/51 122/119/51
f 120/121/52 152/89/52 121/120/52
f 119/122/53 151/90/53 120/121/53
f 118/123/54 150/91/54 119/122/54
f 117/124/55 149/92/55 118/123/55
f 116/125/56 148/93/56 117/124/56
f 115/126/57 147/94/57 116/125/57
f 114/127/58 146/95/58 115/126/58
f 113/128/59 145/96/59 114/127/59
f 112/129/60 144/97/60 113/128/60
f 111/130/61 143/98/61 112/129/61
f 110/131/62 142/99/62 111/130/62
f 109/132/63 141/100/63 110/131/63
f 108/133/64 140/101/64 109/132/64
f 107/134/65 139/102/65 108/133/65
f 106/135/66 138/103/66 107/134/66
f 105/136/67 137/104/67 106/135/67
f 104/2/68 136/105/68 105/136/68
f 65/137/1 134/106/1 67/107/1
f 74/138/1 134/106/1 73/139/1
f 75/140/1 133/108/1 74/138/1
f 76/141/1 132/109/1 75/140/1
f 77/142/1 131/110/1 76/141/1
f 78/143/1 130/111/1 77/142/1
f 79/144/1 129/112/1 78/143/1
f 80/145/1 128/113/1 79/144/1
f 81/146/1 127/114/1 80/145/1
f 82/147/1 126/115/1 81/146/1
f 83/148/1 125/116/1 82/147/1
f 84/149/1 124/117/1 83/148/1
f 85/150/1 123/118/1 84/149/1
f 86/151/1 122/119/1 85/150/1
f 87/152/1 121/120/1 86/151/1
f 88/153/1 120/121/1 87/152/1
f 89/154/1 119/122/1 88/153/1
f 90/155/1 118/123/1 89/154/1
f 91/156/1 117/124/1 90/155/1
f 92/157/1 116/125/1 91/156/1
f 93/158/1 115/126/1 92/157/1
f 94/159/1 114/127/1 93/158/1
f 95/160/1 113/128/1 94/159/1
f 96/161/1 112/129/1 95/160/1
f 97/162/1 111/130/1 96/161/1
f 98/163/1 110/131/1 97/162/1
f 99/164/1 109/132/1 98/163/1
f 100/165/1 108/133/1 99/164/1
f 101/166/1 107/134/1 100/165/1
f 102/167/1 106/135/1 101/166/1
f 103/3/1 105/136/1 102/167/1
f 66/1/1 68/4/1 104/2/1
f 68/4/2 72/13/2 135/5/2
f 135/5/3 72/13/3 70/6/3
f 70/6/4 66/168/4 103/8/4
f 71/9/5 69/16/5 65/10/5
f 68/12/6 66/169/6 70/6/6
f 196/14/7 73/18/7 65/15/7
f 195/17/8 74/20/8 73/18/8
f 194/19/9 75/22/9 74/20/9
f 193/21/10 76/24/10 75/22/10
f 192/23/11 77/26/11 76/24/11
f 191/25/12 78/28/12 77/26/12
f 190/27/13 79/30/13 78/28/13
f 189/29/14 80/32/14 79/30/14
f 188/31/15 81/34/15 80/32/15
f 187/33/16 82/36/16 81/34/16
f 186/35/17 83/38/17 82/36/17
f 185/37/18 84/40/18 83/38/18
f 184/39/19 85/42/19 84/40/19
f 183/41/20 86/44/20 85/42/20
f 182/43/21 87/46/21 86/44/21
f 181/45/22 88/48/22 87/46/22
f 180/47/23 89/50/23 88/48/23
f 179/49/69 90/52/69 89/50/69
f 178/51/25 91/54/25 90/52/25
f 177/53/26 92/56/26 91/54/26
f 176/55/27 93/58/27 92/56/27
f 175/57/28 94/60/28 93/58/28
f 174/59/29 95/62/29 94/60/29
f 173/61/30 96/64/30 95/62/30
f 172/63/31 97/66/31 96/64/31
f 171/65/32 98/68/32 97/66/32
f 170/67/33 99/70/33 98/68/33
f 169/69/34 100/72/34 99/70/34
f 168/71/35 101/74/35 100/72/35
f 167/73/36 102/75/36 101/74/36
f 166/7/37 103/8/37 102/75/37
f 165/76/3 196/14/3 69/16/3
f 165/76/3 164/77/3 195/17/3
f 164/77/3 163/78/3 194/19/3
f 163/78/3 162/79/3 193/21/3
f 162/79/3 161/80/3 192/23/3
f 161/80/3 160/81/3 191/25/3
f 160/81/3 159/82/3 190/27/3
f 159/82/3 158/83/3 189/29/3
f 158/83/3 157/84/3 188/31/3
f 157/84/3 156/85/3 187/33/3
f 156/85/3 155/86/3 186/35/3
f 155/86/3 154/87/3 185/37/3
f 154/87/3 153/88/3 184/39/3
f 153/88/3 152/89/3 183/41/3
f 152/89/3 151/90/3 182/43/3
f 151/90/3 150/91/3 181/45/3
f 150/91/3 149/92/3 180/47/3
f 149/92/3 148/93/3 179/49/3
f 148/93/3 147/94/3 178/51/3
f 147/94/3 146/95/3 177/53/3
f 146/95/3 145/96/3 176/55/3
f 145/96/3 144/97/3 175/57/3
f 144/97/3 143/98/3 174/59/3
f 143/98/3 142/99/3 173/61/3
f 142/99/3 141/100/3 172/63/3
f 141/100/3 140/101/3 171/65/3
f 140/101/3 139/102/3 170/67/3
f 139/102/3 138/103/3 169/69/3
f 138/103/3 137/104/3 168/71/3
f 137/104/3 136/105/3 167/73/3
f 136/105/3 135/5/3 166/7/3
f 134/106/38 165/76/38 71/9/38
f 133/108/39 164/77/39 165/76/39
f 132/109/40 163/78/40 164/77/40
f 131/110/41 162/79/41 163/78/41
f 130/111/42 161/80/42 162/79/42
f 129/112/43 160/81/43 161/80/43
f 128/113/44 159/82/44 160/81/44
f 127/114/45 158/83/45 159/82/45
f 126/115/46 157/84/46 158/83/46
f 125/116/47 156/85/47 157/84/47
f 124/117/48 155/86/48 156/85/48
f 123/118/49 154/87/49 155/86/49
f 122/119/50 153/88/50 154/87/50
f 121/120/51 152/89/51 153/88/51
f 120/121/52 151/90/52 152/89/52
f 119/122/53 150/91/53 151/90/53
f 118/123/54 149/92/54 150/91/54
f 117/124/55 148/93/55 149/92/55
f 116/125/56 147/94/56 148/93/56
f 115/126/57 146/95/57 147/94/57
f 114/127/58 145/96/58 146/95/58
f 113/128/59 144/97/59 145/96/59
f 112/129/60 143/98/60 144/97/60
f 111/130/61 142/99/61 143/98/61
f 110/131/62 141/100/62 142/99/62
f 109/132/63 140/101/63 141/100/63
f 108/133/64 139/102/64 140/101/64
f 107/134/70 138/103/70 139/102/70
f 106/135/66 137/104/66 138/103/66
f 105/136/71 136/105/71 137/104/71
f 104/2/68 135/5/68 136/105/68
f 65/137/1 73/139/1 134/106/1
f 74/138/1 133/108/1 134/106/1
f 75/140/1 132/109/1 133/108/1
f 76/141/1 131/110/1 132/109/1
f 77/142/1 130/111/1 131/110/1
f 78/143/1 129/112/1 130/111/1
f 79/144/1 128/113/1 129/112/1
f 80/145/1 127/114/1 128/113/1
f 81/146/1 126/115/1 127/114/1
f 82/147/1 125/116/1 126/115/1
f 83/148/1 124/117/1 125/116/1
f 84/149/1 123/118/1 124/117/1
f 85/150/1 122/119/1 123/118/1
f 86/151/1 121/120/1 122/119/1
f 87/152/1 120/121/1 121/120/1
f 88/153/1 119/122/1 120/121/1
f 89/154/1 118/123/1 119/122/1
f 90/155/1 117/124/1 118/123/1
f 91/156/1 116/125/1 117/124/1
f 92/157/1 115/126/1 116/125/1
f 93/158/1 114/127/1 115/126/1
f 94/159/1 113/128/1 114/127/1
f 95/160/1 112/129/1 113/128/1
f 96/161/1 111/130/1 112/129/1
f 97/162/1 110/131/1 111/130/1
f 98/163/1 109/132/1 110/131/1
f 99/164/1 108/133/1 109/132/1
f 100/165/1 107/134/1 108/133/1
f 101/166/1 106/135/1 107/134/1
f 102/167/1 105/136/1 106/135/1
f 103/3/1 104/2/1 105/136/1
